<?xml version="1.0" encoding="utf-8"?>
<!-- Svg Vector Icons : http://www.onlinewebfonts.com/icon -->
<!DOCTYPE svg PUBLIC "-//W3C//DTD SVG 1.1//EN" "http://www.w3.org/Graphics/SVG/1.1/DTD/svg11.dtd">
<svg version="1.1" xmlns="http://www.w3.org/2000/svg" xmlns:xlink="http://www.w3.org/1999/xlink" x="0px" y="0px" viewBox="0 0 1000 1000" enable-background="new 0 0 1000 1000" xml:space="preserve">
<metadata> Svg Vector Icons : http://www.onlinewebfonts.com/icon </metadata>
<g><g transform="translate(0.000000,512.000000) scale(0.100000,-0.100000)"><path d="M7185.2,5006.9c-168.7-30.7-312.5-80.5-485-168.7c-164.9-84.4-195.6-109.3-742-653.8c-613.5-611.6-613.5-611.6-582.8-780.3c19.2-95.9,128.5-209,224.3-233.9c44.1-11.5,88.2-17.3,101.6-13.4c11.5,3.8,46,11.5,78.6,19.2c40.3,9.6,205.1,159.1,584.8,534.9c460.1,458.2,542.6,531.1,651.9,580.9c301,141.9,607.8,136.1,920.3-17.3c105.4-53.7,199.4-136.1,634.6-571.3c527.2-525.3,584.8-596.3,661.4-824.4c26.8-78.6,36.4-159.1,34.5-316.3c0-241.6-36.4-371.9-151.5-536.8c-36.4-51.8-722.8-751.6-1528-1554.9C6335.9-775.4,6107.7-995.9,6006.1-1047.7c-322.1-168.7-751.6-184.1-1060.2-38.3c-57.5,26.8-214.7,166.8-469.7,419.9c-210.9,207.1-412.2,391.1-448.6,410.3c-82.4,42.2-233.9,30.7-304.8-23c-132.3-97.8-174.5-262.6-103.5-400.7c46-86.3,694-734.3,841.7-839.7c128.4-90.1,385.4-209,542.6-249.2c69-19.2,228.1-38.3,354.7-44.1c389.2-17.2,743.9,82.4,1073.6,299.1c147.6,97.8,381.5,322.1,1660.3,1606.6c818.7,820.6,1516.5,1533.8,1551,1583.6c86.3,128.5,180.2,343.2,222.4,502.3c26.8,101.6,34.5,201.3,34.5,402.6c-1.9,233.9-7.7,289.5-51.8,437.1c-55.6,180.2-136.1,352.8-230.1,492.7c-82.4,122.7-1054.5,1098.6-1196.4,1200.2c-143.8,103.5-394.9,222.4-561.7,264.6C7716.3,5014.6,7317.5,5031.9,7185.2,5006.9z"/><path d="M4341.9,2136.8c-220.5-30.7-496.6-143.8-686.4-281.8C3506,1747.6,448-1316.1,363.7-1440.7C18.6-1958.4,10.9-2658.1,348.4-3179.6c92-143.8,1067.9-1138.8,1261.5-1288.4c151.5-116.9,343.2-208.9,546.4-268.4c124.6-34.5,201.3-42.1,402.6-42.1c327.8,0,556,59.4,830.2,220.5c134.2,80.5,1204,1127.3,1242.4,1219.4c76.7,178.3-32.6,389.2-228.1,435.2c-28.8,7.6-90.1,1.9-134.2-9.6c-69-17.3-157.2-97.8-607.8-542.6c-414.1-408.4-552.2-534.9-644.2-582.8c-299.1-157.2-617.3-157.2-908.8-1.9C1955-3960,908.2-2907.4,835.3-2763.6c-105.4,210.9-134.2,465.9-78.6,674.9c69,262.7,21.1,209,1656.5,1848.2C3253,601.1,3985.3,1320.1,4040.9,1356.5c283.7,189.8,655.7,210.9,966.3,53.7c72.9-36.4,216.6-164.9,513.8-460.1c414.1-410.3,488.9-467.8,613.5-467.8c82.4,0,199.4,63.3,251.2,136.1c61.4,86.3,69,220.5,21.1,316.3c-21.1,40.3-220.5,255-448.6,479.3c-450.5,444.8-588.6,548.3-864.7,642.3C4850,2140.7,4575.8,2169.4,4341.9,2136.8z"/></g></g>
</svg>